<svg width="32" height="32" viewBox="0 0 32 32" xmlns="http://www.w3.org/2000/svg">
  <defs>
    <linearGradient id="faviconGradient" x1="0%" y1="0%" x2="100%" y2="100%">
      <stop offset="0%" style="stop-color:#667eea;stop-opacity:1" />
      <stop offset="100%" style="stop-color:#764ba2;stop-opacity:1" />
    </linearGradient>
  </defs>
  
  <!-- Background -->
  <rect width="32" height="32" rx="6" fill="url(#faviconGradient)"/>
  
  <!-- Cloud icon -->
  <path d="M8 12 C10 8, 14 8, 14 12 C16 12, 16 16, 14 16 L10 16 C8 16, 8 14, 8 12 Z" 
        fill="white" opacity="0.9"/>
  
  <!-- Data lines -->
  <path d="M4 12 L6 12" stroke="white" stroke-width="1.5" stroke-linecap="round"/>
  <path d="M4 14 L6 14" stroke="white" stroke-width="1.5" stroke-linecap="round"/>
  <path d="M4 16 L6 16" stroke="white" stroke-width="1.5" stroke-linecap="round"/>
  
  <!-- Processing dots -->
  <circle cx="10" cy="12" r="1" fill="white"/>
  <circle cx="10" cy="14" r="1" fill="white"/>
  <circle cx="10" cy="16" r="1" fill="white"/>
  
  <!-- Output arrow -->
  <path d="M14 14 L18 14" stroke="white" stroke-width="1.5" stroke-linecap="round"/>
  <path d="M16 12 L18 14 L16 16" stroke="white" stroke-width="1.5" stroke-linecap="round" fill="none"/>
</svg>
